<?xml version="1.0" encoding="UTF-8"?>
<svg width="60px" height="60px" viewBox="0 0 60 60" version="1.1" xmlns="http://www.w3.org/2000/svg" xmlns:xlink="http://www.w3.org/1999/xlink">
    <!-- Generator: Sketch 60.1 (88133) - https://sketch.com -->
    <title>adesigns-icon</title>
    <desc>Created with Sketch.</desc>
    <defs>
        <linearGradient x1="49.9826489%" y1="91.7657402%" x2="49.9826489%" y2="-24.1079487%" id="linearGradient-1">
            <stop stop-color="#F7921E" offset="1%"></stop>
            <stop stop-color="#D71920" offset="100%"></stop>
        </linearGradient>
        <linearGradient x1="50.0516707%" y1="167.546791%" x2="50.0516707%" y2="11.8315508%" id="linearGradient-2">
            <stop stop-color="#F7921E" offset="1%"></stop>
            <stop stop-color="#D71920" offset="100%"></stop>
        </linearGradient>
    </defs>
    <g id="Symbols" stroke="none" stroke-width="1" fill="none" fill-rule="evenodd">
        <g id="adesigns-copy" fill-rule="nonzero">
            <g id="adesigns-icon">
                <path d="M29.5525424,59.0949356 L29.5525424,59.0949356 C38.4899744,59.1054125 46.9500073,55.0623994 52.5559322,48.1016949 C55.3220339,44.5118644 56.959322,39.1118644 50.7966102,32.8474576 C43.5661017,25.4237288 30.1627119,14.6338983 29.5525424,14.6338983 C28.9423729,14.6338983 15.5389831,25.4237288 8.29830508,32.7966102 C2.19661017,39.1016949 3.78305085,44.5118644 6.54915254,48.0508475 C12.1450162,55.0305927 20.6065639,59.0930334 29.5525424,59.0949356 Z" id="Path" fill="url(#linearGradient-1)"></path>
                <path d="M29.4915254,7.57627119 C30.9762712,7.57627119 45.2338983,19.0779661 59.0440678,30.4271186 C59.0440678,30.1322034 59.0440678,29.8372881 59.0440678,29.5525424 C59.0440678,13.2549228 45.8501272,0.0336495929 29.5525424,0 L29.5525424,0 C13.2311239,0 0,13.2311239 0,29.5525424 C0,29.8474576 0,30.1322034 0,30.3966102 C13.8101695,19.0677966 28.0474576,7.57627119 29.4915254,7.57627119 Z" id="Path" fill="url(#linearGradient-2)"></path>
                <path d="M29.4915254,7.57627119 C30.9762712,7.57627119 45.2338983,19.0779661 59.0440678,30.4271186 C59.0440678,30.1322034 59.0440678,29.8372881 59.0440678,29.5525424 C59.0440678,13.2549228 45.8501272,0.0336495929 29.5525424,0 L29.5525424,0 C13.2311239,0 0,13.2311239 0,29.5525424 C0,29.8474576 0,30.1322034 0,30.3966102 C13.8101695,19.0677966 28.0474576,7.57627119 29.4915254,7.57627119 Z" id="Path" fill="url(#linearGradient-2)"></path>
                <path d="M50.8474576,32.7966102 C43.5661017,25.4237288 30.1627119,14.6338983 29.5525424,14.6338983 C28.9423729,14.6338983 15.5389831,25.4237288 8.29830508,32.7966102 C6.47839648,34.5298011 5.13979035,36.7059121 4.41355932,39.1118644 C5.27167073,37.4234141 6.44938619,35.9175961 7.88135593,34.6779661 C15.2542373,27.9661017 28.9322034,18.3050847 29.5627119,18.3050847 C30.1932203,18.3050847 43.8,28.0067797 51.2338983,34.7186441 C52.6362016,35.9326146 53.7986302,37.3985854 54.6610169,39.040678 C53.9361917,36.6712717 52.6244024,34.5234353 50.8474576,32.7966102 Z" id="Path" fill="#6F0000" opacity="0.44"></path>
            </g>
        </g>
    </g>
</svg>