<svg width="509" height="95" viewBox="0 0 509 95" fill="none" xmlns="http://www.w3.org/2000/svg">
<g clip-path="url(#clip0_0_3)">
<path d="M47.13 94.26C61.95 94.26 75.18 87.42 83.82 76.72C88.24 71 90.84 62.38 81.02 52.31C69.48 40.47 48.11 23.34 47.12 23.34C46.13 23.34 24.77 40.47 13.23 52.31C3.42 62.37 6.01 70.99 10.43 76.71C19.07 87.41 32.3 94.26 47.12 94.26H47.13Z" fill="url(#paint0_linear_0_3)"/>
<path d="M47.1 12.08C49.46 12.08 72.2 30.43 94.23 48.53C94.24 48.06 94.27 47.59 94.27 47.13C94.27 21.1 73.17 0 47.14 0C21.1 0 0 21.1 0 47.13C0 47.61 0 48.05 0.02 48.48C22.02 30.41 44.73 12.08 47.1 12.08Z" fill="url(#paint1_linear_0_3)"/>
<path d="M47.1 12.08C49.46 12.08 72.2 30.43 94.23 48.53C94.24 48.06 94.27 47.59 94.27 47.13C94.27 21.1 73.17 0 47.14 0C21.1 0 0 21.1 0 47.13C0 47.61 0 48.05 0.02 48.48C22.02 30.41 44.73 12.08 47.1 12.08Z" fill="url(#paint2_linear_0_3)"/>
<path opacity="0.44" d="M81.03 52.31C69.49 40.47 48.12 23.34 47.14 23.34C46.16 23.34 24.79 40.47 13.25 52.31C9.78 55.87 7.88 59.25 7.05 62.38C8.12 60.13 9.88 57.77 12.59 55.31C24.37 44.61 46.16 29.12 47.16 29.12C48.16 29.12 69.96 44.61 81.74 55.31C84.38 57.71 86.12 60.01 87.2 62.21C86.34 59.12 84.46 55.81 81.05 52.31H81.03Z" fill="#6E0E0F"/>
<mask id="mask0_0_3" style="mask-type:luminance" maskUnits="userSpaceOnUse" x="123" y="19" width="25" height="25">
<path d="M135.24 25.06L138.39 33.76H132.08L135.23 25.06H135.24ZM147.45 43.02L138.85 19.78H131.61L123.01 43.02H128.69L130.32 38.57H140.15L141.78 43.02H147.46H147.45Z" fill="white"/>
</mask>
<g mask="url(#mask0_0_3)">
<path d="M149.3 17.94H121.18V44.87H149.3V17.94Z" fill="#2B303A"/>
</g>
<mask id="mask1_0_3" style="mask-type:luminance" maskUnits="userSpaceOnUse" x="151" y="19" width="23" height="25">
<path d="M157.09 38.07V24.73H162.24C165.36 24.73 167.78 27.22 167.78 31.3C167.78 35.38 165.36 38.07 162.24 38.07H157.09ZM151.64 19.78V43.02H162.36C169 43.02 173.35 38.14 173.35 31.4C173.35 24.66 168.9 19.78 162.36 19.78H151.64Z" fill="white"/>
</mask>
<g mask="url(#mask1_0_3)">
<path d="M175.2 17.94H149.8V44.87H175.2V17.94Z" fill="#2B303A"/>
</g>
<mask id="mask2_0_3" style="mask-type:luminance" maskUnits="userSpaceOnUse" x="178" y="19" width="22" height="25">
<path d="M190.09 24.7C191.78 24.7 193.14 26.03 193.14 27.62C193.14 29.21 191.81 30.57 189.85 30.57H184.07V24.69H190.08L190.09 24.7ZM199.35 43.02L193.74 34.69C196.83 33.43 198.49 30.61 198.49 27.62C198.49 23.77 195.44 19.79 190.26 19.79H178.64V43.03H184.08V35.4H188.06L193.01 43.03H199.35V43.02Z" fill="white"/>
</mask>
<g mask="url(#mask2_0_3)">
<path d="M201.19 17.94H176.79V44.87H201.19V17.94Z" fill="#2B303A"/>
</g>
<mask id="mask3_0_3" style="mask-type:luminance" maskUnits="userSpaceOnUse" x="204" y="19" width="6" height="25">
<path d="M209.79 19.78H204.21V43.02H209.79V19.78Z" fill="white"/>
</mask>
<g mask="url(#mask3_0_3)">
<path d="M211.63 17.94H202.36V44.87H211.63V17.94Z" fill="#2B303A"/>
</g>
<mask id="mask4_0_3" style="mask-type:luminance" maskUnits="userSpaceOnUse" x="213" y="19" width="26" height="25">
<path d="M226.19 25.06L229.34 33.76H223.03L226.18 25.06H226.19ZM238.41 43.02L229.81 19.78H222.57L213.97 43.02H219.65L221.28 38.57H231.11L232.74 43.02H238.42H238.41Z" fill="white"/>
</mask>
<g mask="url(#mask4_0_3)">
<path d="M240.25 17.94H212.13V44.87H240.25V17.94Z" fill="#2B303A"/>
</g>
<mask id="mask5_0_3" style="mask-type:luminance" maskUnits="userSpaceOnUse" x="242" y="19" width="18" height="25">
<path d="M248.11 19.78H242.6V43.02H259.03V37.97H248.11V19.78Z" fill="white"/>
</mask>
<g mask="url(#mask5_0_3)">
<path d="M260.87 17.94H240.75V44.87H260.87V17.94Z" fill="#2B303A"/>
</g>
<mask id="mask6_0_3" style="mask-type:luminance" maskUnits="userSpaceOnUse" x="274" y="19" width="22" height="25">
<path d="M279.49 38.07V24.73H284.64C287.76 24.73 290.18 27.22 290.18 31.3C290.18 35.38 287.76 38.07 284.64 38.07H279.49ZM274.05 19.78V43.02H284.77C291.41 43.02 295.76 38.14 295.76 31.4C295.76 24.66 291.31 19.78 284.77 19.78H274.05Z" fill="white"/>
</mask>
<g mask="url(#mask6_0_3)">
<path d="M297.6 17.94H272.2V44.87H297.6V17.94Z" fill="#2B303A"/>
</g>
<mask id="mask7_0_3" style="mask-type:luminance" maskUnits="userSpaceOnUse" x="301" y="19" width="18" height="25">
<path d="M318.54 19.78H301.04V43.02H318.5V38.04H306.42V33.63H316.84V28.81H306.42V24.76H318.54V19.78Z" fill="white"/>
</mask>
<g mask="url(#mask7_0_3)">
<path d="M320.38 17.94H299.2V44.87H320.38V17.94Z" fill="#2B303A"/>
</g>
<mask id="mask8_0_3" style="mask-type:luminance" maskUnits="userSpaceOnUse" x="322" y="19" width="21" height="25">
<path d="M332.85 43.48C338.59 43.48 342.41 40.29 342.41 36.14C342.41 32.22 339.52 30.63 336.07 29.5L330.92 27.81C329.63 27.38 329.06 26.85 329.06 26.05C329.06 24.99 330.32 24.12 332.21 24.12C334.6 24.12 336.36 25.25 336.92 26.91L342.03 25.42C341.17 22.07 337.65 19.31 332.47 19.31C327.29 19.31 323.44 22.43 323.47 26.25C323.44 29.3 325.73 31.4 328.78 32.39L334.62 34.28C336.15 34.78 336.81 35.48 336.81 36.44C336.81 37.6 335.45 38.66 333.19 38.66C330.04 38.66 328.18 36.93 327.61 34.74L322.37 36.33C323.3 39.98 326.62 43.47 332.83 43.47L332.85 43.48Z" fill="white"/>
</mask>
<g mask="url(#mask8_0_3)">
<path d="M344.26 17.47H320.55V45.32H344.26V17.47Z" fill="#2B303A"/>
</g>
<mask id="mask9_0_3" style="mask-type:luminance" maskUnits="userSpaceOnUse" x="347" y="19" width="7" height="25">
<path d="M353.18 19.78H347.6V43.02H353.18V19.78Z" fill="white"/>
</mask>
<g mask="url(#mask9_0_3)">
<path d="M355.02 17.94H345.75V44.87H355.02V17.94Z" fill="#2B303A"/>
</g>
<mask id="mask10_0_3" style="mask-type:luminance" maskUnits="userSpaceOnUse" x="358" y="19" width="25" height="25">
<path d="M382.79 29.81H370.91V34.56L377.02 34.53C376.59 36.46 374.76 38.38 371.41 38.38C366.53 38.38 364.04 34.99 364.04 31.38C364.04 27.77 366.76 24.51 370.78 24.51C374.03 24.51 375.83 25.9 376.92 28L382.03 26.54C380.6 22.69 376.65 19.34 370.71 19.34C363.77 19.34 358.46 24.55 358.46 31.42C358.46 38.29 363.74 43.5 370.97 43.5C378.2 43.5 382.79 38.85 382.79 32.58V29.82V29.81Z" fill="white"/>
</mask>
<g mask="url(#mask10_0_3)">
<path d="M384.64 17.47H356.62V45.32H384.64V17.47Z" fill="#2B303A"/>
</g>
<mask id="mask11_0_3" style="mask-type:luminance" maskUnits="userSpaceOnUse" x="388" y="19" width="21" height="25">
<path d="M403.02 33.09L392.56 19.78H388.08V43.02H393.59V29.71L404.05 43.02H408.53V19.78H403.02V33.09Z" fill="white"/>
</mask>
<g mask="url(#mask11_0_3)">
<path d="M410.38 17.94H386.24V44.87H410.38V17.94Z" fill="#2B303A"/>
</g>
<mask id="mask12_0_3" style="mask-type:luminance" maskUnits="userSpaceOnUse" x="413" y="19" width="21" height="25">
<path d="M424.17 43.48C429.91 43.48 433.73 40.29 433.73 36.14C433.73 32.22 430.84 30.63 427.39 29.5L422.24 27.81C420.95 27.38 420.38 26.85 420.38 26.05C420.38 24.99 421.64 24.12 423.53 24.12C425.92 24.12 427.68 25.25 428.24 26.91L433.35 25.42C432.49 22.07 428.97 19.31 423.79 19.31C418.61 19.31 414.76 22.43 414.79 26.25C414.76 29.3 417.05 31.4 420.1 32.39L425.94 34.28C427.47 34.78 428.13 35.48 428.13 36.44C428.13 37.6 426.77 38.66 424.51 38.66C421.36 38.66 419.5 36.93 418.93 34.74L413.69 36.33C414.62 39.98 417.94 43.47 424.15 43.47L424.17 43.48Z" fill="white"/>
</mask>
<g mask="url(#mask12_0_3)">
<path d="M435.58 17.47H411.87V45.32H435.58V17.47Z" fill="#2B303A"/>
</g>
<path d="M121.97 71.79L124.86 70.91C125.38 73.16 127.39 74.95 130.36 74.95C133.03 74.95 134.68 73.49 134.68 71.95C134.68 70.71 133.91 69.91 131.88 69.23L127.15 67.69C124.65 66.86 122.89 65.38 122.89 63.02C122.89 60.1 125.69 57.66 129.87 57.66C134.05 57.66 136.61 59.8 137.4 62.47L134.57 63.3C133.97 61.54 132.15 60.33 129.73 60.33C127.31 60.33 125.94 61.51 125.94 62.89C125.94 63.96 126.63 64.57 128.41 65.17L132.78 66.6C135.64 67.56 137.73 68.83 137.73 71.71C137.73 75.04 134.71 77.62 130.2 77.62C125.69 77.62 122.69 74.84 121.98 71.79H121.97Z" fill="#9CA3AF"/>
<path d="M141.46 72.78V66.04H138.93V63.43H141.46V58.84H144.37V63.43H148.74V66.04H144.37V72.78C144.37 74.1 145 74.87 146.32 74.87C147.01 74.87 147.5 74.73 148.13 74.43L148.84 76.82C147.8 77.26 146.89 77.48 145.79 77.48C142.82 77.48 141.45 75.61 141.45 72.78H141.46Z" fill="#9CA3AF"/>
<path d="M151.69 63.43H154.6V65.63C155.4 63.95 157.05 62.96 159.33 63.26V65.98C156.36 65.57 154.6 67.02 154.6 71.04V77.25H151.69V63.42V63.43Z" fill="#9CA3AF"/>
<path d="M160.16 70.33C160.16 66.18 163.16 63.07 167.06 63.07C169.26 63.07 170.94 64.01 171.98 65.46V63.42H174.89V77.25H171.98V75.19C170.94 76.68 169.26 77.61 167.06 77.61C163.16 77.61 160.16 74.5 160.16 70.32V70.33ZM172.06 70.33C172.06 67.66 170.03 65.71 167.52 65.71C165.01 65.71 163.04 67.63 163.04 70.33C163.04 73.03 164.91 75 167.52 75C170.13 75 172.06 73.05 172.06 70.33Z" fill="#9CA3AF"/>
<path d="M179.82 72.78V66.04H177.29V63.43H179.82V58.84H182.73V63.43H187.1V66.04H182.73V72.78C182.73 74.1 183.36 74.87 184.68 74.87C185.37 74.87 185.86 74.73 186.49 74.43L187.2 76.82C186.16 77.26 185.25 77.48 184.15 77.48C181.18 77.48 179.81 75.61 179.81 72.78H179.82Z" fill="#9CA3AF"/>
<path d="M188.56 70.36C188.56 66.24 191.42 63.07 195.71 63.07C200 63.07 202.75 66.18 202.75 70.11C202.75 70.52 202.72 70.85 202.67 71.24H191.45C191.64 73.49 193.24 75.12 196.01 75.12C198.04 75.12 199.34 74.1 199.91 72.92L202.58 73.69C201.73 75.56 199.56 77.62 195.95 77.62C191.63 77.62 188.55 74.73 188.55 70.36H188.56ZM195.71 65.6C193.26 65.6 191.64 67.33 191.45 69.28H199.89C199.7 67.19 198.21 65.6 195.71 65.6Z" fill="#9CA3AF"/>
<path d="M205.85 79.76L208.52 78.8C209.32 80.18 210.55 80.94 212.48 80.94C215.09 80.94 216.58 79.13 216.6 76.79V74.78C215.53 76.24 213.85 77.09 211.73 77.09C207.74 77.09 204.83 74.04 204.83 70.08C204.83 66.12 207.74 63.07 211.73 63.07C213.85 63.07 215.52 63.92 216.6 65.38V63.43H219.51V76.77C219.51 80.62 216.68 83.4 212.42 83.4C209.07 83.4 207 81.91 205.85 79.77V79.76ZM216.66 70.08C216.66 67.55 214.74 65.71 212.21 65.71C209.68 65.71 207.73 67.55 207.73 70.08C207.73 72.61 209.57 74.48 212.21 74.48C214.85 74.48 216.66 72.64 216.66 70.08Z" fill="#9CA3AF"/>
<path d="M223.01 59.47C223.01 58.48 223.81 57.71 224.8 57.71C225.79 57.71 226.59 58.48 226.59 59.47C226.59 60.46 225.79 61.23 224.8 61.23C223.81 61.23 223.01 60.46 223.01 59.47ZM223.34 63.43H226.25V77.26H223.34V63.43Z" fill="#9CA3AF"/>
<path d="M229.22 70.33C229.22 66.21 232.3 63.07 236.48 63.07C240.19 63.07 242.53 65.44 243.05 67.44L240.36 68.24C239.98 66.98 238.52 65.68 236.48 65.68C233.81 65.68 232.08 67.82 232.08 70.33C232.08 72.84 233.81 75 236.48 75C238.52 75 239.97 73.79 240.36 72.53L243.05 73.3C242.53 75.31 240.19 77.62 236.51 77.62C232.3 77.62 229.22 74.46 229.22 70.33Z" fill="#9CA3AF"/>
<path d="M252.95 63.43H255.86V65.41C256.71 64.06 258.2 63.07 260.18 63.07C262.16 63.07 263.7 63.95 264.47 65.52C265.35 64.17 266.94 63.07 269.28 63.07C272.55 63.07 274.7 65.22 274.7 68.98V77.26H271.78V69.56C271.78 67.25 270.79 65.79 268.67 65.79C266.55 65.79 265.26 67.44 265.26 70.05V77.25H262.34V69.55C262.34 67.24 261.41 65.78 259.37 65.78C257.2 65.78 255.85 67.51 255.85 70.26V77.24H252.94V63.41L252.95 63.43Z" fill="#9CA3AF"/>
<path d="M277.53 70.33C277.53 66.18 280.53 63.07 284.43 63.07C286.63 63.07 288.31 64.01 289.35 65.46V63.42H292.27V77.25H289.35V75.19C288.31 76.68 286.63 77.61 284.43 77.61C280.53 77.61 277.53 74.5 277.53 70.32V70.33ZM289.44 70.33C289.44 67.66 287.4 65.71 284.9 65.71C282.4 65.71 280.42 67.63 280.42 70.33C280.42 73.03 282.29 75 284.9 75C287.51 75 289.44 73.05 289.44 70.33Z" fill="#9CA3AF"/>
<path d="M296.12 63.43H299.04V65.63C299.84 63.95 301.49 62.96 303.77 63.26V65.98C300.8 65.57 299.04 67.02 299.04 71.04V77.25H296.12V63.42V63.43Z" fill="#9CA3AF"/>
<path d="M306.29 57.19H309.2V69.65L314.92 63.44H318.38L312.85 69.41L319.01 77.27H315.66L311.01 71.47L309.19 73.42V77.27H306.28V57.2L306.29 57.19Z" fill="#9CA3AF"/>
<path d="M319.51 70.36C319.51 66.24 322.37 63.07 326.66 63.07C330.95 63.07 333.7 66.18 333.7 70.11C333.7 70.52 333.67 70.85 333.62 71.24H322.4C322.59 73.49 324.19 75.12 326.96 75.12C329 75.12 330.29 74.1 330.86 72.92L333.53 73.69C332.68 75.56 330.5 77.62 326.9 77.62C322.58 77.62 319.5 74.73 319.5 70.36H319.51ZM326.66 65.6C324.21 65.6 322.59 67.33 322.4 69.28H330.84C330.65 67.19 329.16 65.6 326.66 65.6Z" fill="#9CA3AF"/>
<path d="M337.33 72.78V66.04H334.8V63.43H337.33V58.84H340.25V63.43H344.62V66.04H340.25V72.78C340.25 74.1 340.88 74.87 342.2 74.87C342.89 74.87 343.38 74.73 344.01 74.43L344.72 76.82C343.68 77.26 342.77 77.48 341.67 77.48C338.7 77.48 337.33 75.61 337.33 72.78Z" fill="#9CA3AF"/>
<path d="M347.23 59.47C347.23 58.48 348.03 57.71 349.02 57.71C350.01 57.71 350.81 58.48 350.81 59.47C350.81 60.46 350.01 61.23 349.02 61.23C348.03 61.23 347.23 60.46 347.23 59.47ZM347.56 63.43H350.48V77.26H347.56V63.43Z" fill="#9CA3AF"/>
<path d="M354.32 63.43H357.24V65.55C358.17 64.12 359.77 63.08 362 63.08C365.52 63.08 367.5 65.42 367.5 69.16V77.27H364.58V69.68C364.58 67.29 363.43 65.8 361.17 65.8C358.8 65.8 357.24 67.64 357.24 70.39V77.26H354.32V63.43Z" fill="#9CA3AF"/>
<path d="M371.31 79.76L373.98 78.8C374.78 80.18 376.01 80.94 377.94 80.94C380.55 80.94 382.04 79.13 382.06 76.79V74.78C380.99 76.24 379.31 77.09 377.19 77.09C373.2 77.09 370.29 74.04 370.29 70.08C370.29 66.12 373.2 63.07 377.19 63.07C379.31 63.07 380.98 63.92 382.06 65.38V63.43H384.97V76.77C384.97 80.62 382.14 83.4 377.88 83.4C374.53 83.4 372.46 81.91 371.31 79.77V79.76ZM382.12 70.08C382.12 67.55 380.2 65.71 377.67 65.71C375.14 65.71 373.19 67.55 373.19 70.08C373.19 72.61 375.03 74.48 377.67 74.48C380.31 74.48 382.12 72.64 382.12 70.08Z" fill="#9CA3AF"/>
<path d="M394.85 70.33C394.85 66.18 397.85 63.07 401.75 63.07C403.95 63.07 405.63 64.01 406.67 65.46V57.18H409.59V77.25H406.67V75.19C405.63 76.68 403.95 77.61 401.75 77.61C397.85 77.61 394.85 74.5 394.85 70.32V70.33ZM406.75 70.33C406.75 67.66 404.71 65.71 402.21 65.71C399.71 65.71 397.73 67.63 397.73 70.33C397.73 73.03 399.6 75 402.21 75C404.82 75 406.75 73.05 406.75 70.33Z" fill="#9CA3AF"/>
<path d="M412.55 70.36C412.55 66.24 415.41 63.07 419.7 63.07C423.99 63.07 426.74 66.18 426.74 70.11C426.74 70.52 426.71 70.85 426.66 71.24H415.44C415.63 73.49 417.23 75.12 420 75.12C422.04 75.12 423.33 74.1 423.9 72.92L426.57 73.69C425.72 75.56 423.54 77.62 419.94 77.62C415.62 77.62 412.54 74.73 412.54 70.36H412.55ZM419.7 65.6C417.25 65.6 415.63 67.33 415.44 69.28H423.88C423.69 67.19 422.2 65.6 419.7 65.6Z" fill="#9CA3AF"/>
<path d="M428.53 73.41L431.09 72.64C431.39 74.1 432.96 75.22 434.88 75.22C436.61 75.22 437.77 74.37 437.77 73.38C437.77 72.55 437.16 72.09 435.98 71.7L432.52 70.66C430.68 70.08 429.19 69.07 429.19 67.14C429.19 64.89 431.64 63.07 434.66 63.07C437.68 63.07 439.77 64.56 440.46 66.56L437.96 67.3C437.63 66.28 436.31 65.4 434.69 65.4C433.07 65.4 432.08 66.22 432.08 67.05C432.08 67.74 432.63 68.09 433.57 68.37L436.98 69.41C438.93 69.99 440.64 70.87 440.64 73.23C440.64 75.73 438.19 77.6 434.84 77.6C431.49 77.6 429.07 75.65 428.54 73.39L428.53 73.41Z" fill="#9CA3AF"/>
<path d="M443.37 59.47C443.37 58.48 444.17 57.71 445.16 57.71C446.15 57.71 446.95 58.48 446.95 59.47C446.95 60.46 446.15 61.23 445.16 61.23C444.17 61.23 443.37 60.46 443.37 59.47ZM443.7 63.43H446.61V77.26H443.7V63.43Z" fill="#9CA3AF"/>
<path d="M450.6 79.76L453.27 78.8C454.07 80.18 455.3 80.94 457.23 80.94C459.84 80.94 461.33 79.13 461.35 76.79V74.78C460.28 76.24 458.6 77.09 456.48 77.09C452.49 77.09 449.58 74.04 449.58 70.08C449.58 66.12 452.49 63.07 456.48 63.07C458.6 63.07 460.27 63.92 461.35 65.38V63.43H464.26V76.77C464.26 80.62 461.43 83.4 457.17 83.4C453.82 83.4 451.75 81.91 450.6 79.77V79.76ZM461.41 70.08C461.41 67.55 459.49 65.71 456.96 65.71C454.43 65.71 452.48 67.55 452.48 70.08C452.48 72.61 454.32 74.48 456.96 74.48C459.6 74.48 461.41 72.64 461.41 70.08Z" fill="#9CA3AF"/>
<path d="M468.09 63.43H471V65.55C471.94 64.12 473.53 63.08 475.76 63.08C479.28 63.08 481.26 65.42 481.26 69.16V77.27H478.34V69.68C478.34 67.29 477.19 65.8 474.93 65.8C472.56 65.8 471 67.64 471 70.39V77.26H468.09V63.43Z" fill="#9CA3AF"/>
<path d="M484.06 70.36C484.06 66.24 486.92 63.07 491.21 63.07C495.5 63.07 498.25 66.18 498.25 70.11C498.25 70.52 498.22 70.85 498.17 71.24H486.95C487.14 73.49 488.74 75.12 491.51 75.12C493.55 75.12 494.84 74.1 495.41 72.92L498.08 73.69C497.23 75.56 495.05 77.62 491.45 77.62C487.13 77.62 484.05 74.73 484.05 70.36H484.06ZM491.21 65.6C488.76 65.6 487.14 67.33 486.95 69.28H495.39C495.2 67.19 493.71 65.6 491.21 65.6Z" fill="#9CA3AF"/>
<path d="M501.22 63.43H504.14V65.63C504.94 63.95 506.59 62.96 508.87 63.26V65.98C505.9 65.57 504.14 67.02 504.14 71.04V77.25H501.22V63.42V63.43Z" fill="#9CA3AF"/>
</g>
<defs>
<linearGradient id="paint0_linear_0_3" x1="47.13" y1="88.43" x2="47.13" y2="6.24" gradientUnits="userSpaceOnUse">
<stop stop-color="#F69220"/>
<stop offset="1" stop-color="#D72027"/>
</linearGradient>
<linearGradient id="paint1_linear_0_3" x1="47.13" y1="81.32" x2="47.13" y2="5.74" gradientUnits="userSpaceOnUse">
<stop stop-color="#F69220"/>
<stop offset="1" stop-color="#D72027"/>
</linearGradient>
<linearGradient id="paint2_linear_0_3" x1="47.13" y1="81.32" x2="47.13" y2="5.74" gradientUnits="userSpaceOnUse">
<stop stop-color="#F69220"/>
<stop offset="1" stop-color="#D72027"/>
</linearGradient>
<clipPath id="clip0_0_3">
<rect width="508.86" height="94.26" fill="white"/>
</clipPath>
</defs>
</svg>
